<mxfile host="65bd71144e">
    <diagram id="XYbTSL7tgOhtZLfHtf3t" name="Page-1">
        <mxGraphModel dx="573" dy="613" grid="1" gridSize="10" guides="1" tooltips="1" connect="1" arrows="1" fold="1" page="1" pageScale="1" pageWidth="800" pageHeight="500" math="0" shadow="0">
            <root>
                <mxCell id="0"/>
                <mxCell id="1" parent="0"/>
                <mxCell id="19" value="4" style="whiteSpace=wrap;html=1;startSize=0;fontSize=20;fontFamily=Comic Sans MS;fillColor=#fff2cc;strokeColor=#d6b656;movable=0;resizable=0;rotatable=0;deletable=0;editable=0;connectable=0;" vertex="1" parent="1">
                    <mxGeometry x="490" y="180" width="60" height="40" as="geometry"/>
                </mxCell>
                <mxCell id="21" value="Array of size 4&amp;nbsp;" style="text;html=1;strokeColor=none;fillColor=none;align=center;verticalAlign=middle;whiteSpace=wrap;rounded=0;fontSize=20;fontFamily=Comic Sans MS;movable=0;resizable=0;rotatable=0;deletable=0;editable=0;connectable=0;" vertex="1" parent="1">
                    <mxGeometry x="340" y="150" width="170" height="30" as="geometry"/>
                </mxCell>
                <mxCell id="22" value="3" style="whiteSpace=wrap;html=1;startSize=0;fontSize=20;fontFamily=Comic Sans MS;fillColor=#fff2cc;strokeColor=#d6b656;movable=0;resizable=0;rotatable=0;deletable=0;editable=0;connectable=0;" vertex="1" parent="1">
                    <mxGeometry x="430" y="180" width="60" height="40" as="geometry"/>
                </mxCell>
                <mxCell id="23" value="2" style="whiteSpace=wrap;html=1;startSize=0;fontSize=20;fontFamily=Comic Sans MS;fillColor=#fff2cc;strokeColor=#d6b656;movable=0;resizable=0;rotatable=0;deletable=0;editable=0;connectable=0;" vertex="1" parent="1">
                    <mxGeometry x="370" y="180" width="60" height="40" as="geometry"/>
                </mxCell>
                <mxCell id="24" value="1" style="whiteSpace=wrap;html=1;startSize=0;fontSize=20;fontFamily=Comic Sans MS;fillColor=#fff2cc;strokeColor=#d6b656;movable=0;resizable=0;rotatable=0;deletable=0;editable=0;connectable=0;" vertex="1" parent="1">
                    <mxGeometry x="310" y="180" width="60" height="40" as="geometry"/>
                </mxCell>
                <mxCell id="25" value="0" style="text;html=1;strokeColor=none;fillColor=none;align=center;verticalAlign=middle;whiteSpace=wrap;rounded=0;fontFamily=Comic Sans MS;fontSize=20;movable=0;resizable=0;rotatable=0;deletable=0;editable=0;connectable=0;" vertex="1" parent="1">
                    <mxGeometry x="310" y="220" width="60" height="30" as="geometry"/>
                </mxCell>
                <mxCell id="26" value="1" style="text;html=1;strokeColor=none;fillColor=none;align=center;verticalAlign=middle;whiteSpace=wrap;rounded=0;fontFamily=Comic Sans MS;fontSize=20;movable=0;resizable=0;rotatable=0;deletable=0;editable=0;connectable=0;" vertex="1" parent="1">
                    <mxGeometry x="370" y="220" width="60" height="30" as="geometry"/>
                </mxCell>
                <mxCell id="27" value="2" style="text;html=1;strokeColor=none;fillColor=none;align=center;verticalAlign=middle;whiteSpace=wrap;rounded=0;fontFamily=Comic Sans MS;fontSize=20;movable=0;resizable=0;rotatable=0;deletable=0;editable=0;connectable=0;" vertex="1" parent="1">
                    <mxGeometry x="430" y="220" width="60" height="30" as="geometry"/>
                </mxCell>
                <mxCell id="28" value="3" style="text;html=1;strokeColor=none;fillColor=none;align=center;verticalAlign=middle;whiteSpace=wrap;rounded=0;fontFamily=Comic Sans MS;fontSize=20;movable=0;resizable=0;rotatable=0;deletable=0;editable=0;connectable=0;" vertex="1" parent="1">
                    <mxGeometry x="490" y="220" width="60" height="30" as="geometry"/>
                </mxCell>
            </root>
        </mxGraphModel>
    </diagram>
</mxfile>